<svg width="1280" height="360" viewBox="0 0 1280 360" fill="none" xmlns="http://www.w3.org/2000/svg" role="img" aria-labelledby="title desc">
  <title id="title">Predicting Financial Inclusion in Rural Kenya</title>
  <desc id="desc">A data science banner showing rural landscape, mobile finance, analytics, and financial inclusion themes.</desc>
  <rect width="1280" height="360" fill="#0E2A2B"/>
  <path d="M0 238C106 207 205 213 302 235C409 259 493 258 596 229C705 198 798 184 918 216C1033 246 1142 252 1280 221V360H0V238Z" fill="#2F6F4E"/>
  <path d="M0 286C133 250 250 261 373 287C506 315 615 301 735 269C861 235 978 241 1099 277C1160 295 1223 301 1280 290V360H0V286Z" fill="#74A66A"/>
  <circle cx="1086" cy="78" r="42" fill="#F7C948"/>
  <path d="M976 86H1210" stroke="#F7C948" stroke-opacity="0.25" stroke-width="8" stroke-linecap="round"/>
  <rect x="792" y="78" width="220" height="160" rx="22" fill="#F8FAFC"/>
  <rect x="812" y="100" width="180" height="92" rx="14" fill="#DFF4EA"/>
  <rect x="844" y="214" width="116" height="10" rx="5" fill="#0E2A2B" fill-opacity="0.22"/>
  <path d="M848 163L879 134L912 153L957 113" stroke="#1B6B50" stroke-width="12" stroke-linecap="round" stroke-linejoin="round"/>
  <circle cx="879" cy="134" r="9" fill="#F7C948"/>
  <circle cx="912" cy="153" r="9" fill="#F7C948"/>
  <circle cx="957" cy="113" r="9" fill="#F7C948"/>
  <rect x="100" y="74" width="560" height="178" rx="18" fill="#0E2A2B" fill-opacity="0.56"/>
  <text x="128" y="126" fill="#F8FAFC" font-family="Arial, Helvetica, sans-serif" font-size="34" font-weight="700">Predicting Barriers to Financial Inclusion</text>
  <text x="128" y="172" fill="#DFF4EA" font-family="Arial, Helvetica, sans-serif" font-size="26" font-weight="600">Among Rural Youth in Kenya</text>
  <text x="128" y="215" fill="#C9D8D5" font-family="Arial, Helvetica, sans-serif" font-size="18">FinAccess 2024 Household Survey  •  Classification  •  Policy Insights</text>
  <g transform="translate(654 126)">
    <rect x="0" y="0" width="72" height="118" rx="14" fill="#F8FAFC"/>
    <rect x="10" y="16" width="52" height="72" rx="8" fill="#1B6B50"/>
    <circle cx="36" cy="103" r="5" fill="#0E2A2B" fill-opacity="0.4"/>
    <path d="M22 54H50" stroke="#F7C948" stroke-width="7" stroke-linecap="round"/>
    <path d="M36 40V68" stroke="#F7C948" stroke-width="7" stroke-linecap="round"/>
  </g>
  <g stroke="#F8FAFC" stroke-opacity="0.36" stroke-width="4" stroke-linecap="round">
    <path d="M744 184C767 180 777 154 800 149"/>
    <path d="M736 210C774 219 797 243 838 239"/>
    <path d="M735 157C763 137 782 105 824 102"/>
  </g>
  <g fill="#0E2A2B" fill-opacity="0.38">
    <circle cx="226" cy="298" r="13"/>
    <circle cx="273" cy="285" r="11"/>
    <circle cx="322" cy="301" r="14"/>
    <circle cx="1008" cy="300" r="12"/>
    <circle cx="1052" cy="290" r="10"/>
    <circle cx="1101" cy="306" r="13"/>
  </g>
</svg>
